<svg xmlns="http://www.w3.org/2000/svg" width="22.5" height="18" viewBox="0 0 22.5 18">
  <path id="Icon_awesome-user-plus" data-name="Icon awesome-user-plus" d="M21.938,7.313h-2.25V5.063a.564.564,0,0,0-.562-.562H18a.564.564,0,0,0-.562.563v2.25h-2.25a.564.564,0,0,0-.562.563V9a.564.564,0,0,0,.563.563h2.25v2.25a.564.564,0,0,0,.563.563h1.125a.564.564,0,0,0,.563-.562V9.563h2.25A.564.564,0,0,0,22.5,9V7.875A.564.564,0,0,0,21.938,7.313ZM7.875,9a4.5,4.5,0,1,0-4.5-4.5A4.5,4.5,0,0,0,7.875,9Zm3.15,1.125h-.587a6.12,6.12,0,0,1-5.126,0H4.725A4.726,4.726,0,0,0,0,14.85v1.462A1.688,1.688,0,0,0,1.688,18H14.063a1.688,1.688,0,0,0,1.688-1.687V14.85A4.726,4.726,0,0,0,11.025,10.125Z" fill="#fff" opacity="0.6"/>
</svg>
