<svg xmlns="http://www.w3.org/2000/svg" width="114.875" height="32" viewBox="0 0 114.875 32">
  <g id="Camada_x0020_1" transform="translate(0 1.016)">
    <g id="_2661147642192" transform="translate(0 -0.728)">
      <path id="Caminho_30" data-name="Caminho 30" d="M7765.119,4795.208c-.281.256-.471.635-.471,1.528a2.817,2.817,0,0,1-.859,2.337,2.7,2.7,0,0,1-1.809.528v-1.032a1.808,1.808,0,0,0,1.123-.314c.273-.232.455-.6.455-1.52a2.8,2.8,0,0,1,.85-2.322,2.606,2.606,0,0,1,1.743-.553v1.042A1.616,1.616,0,0,0,7765.119,4795.208Z" transform="translate(-7720.223 -4768.134)" fill="#fff"/>
      <path id="Caminho_31" data-name="Caminho 31" d="M8650.371,4772.292a2.809,2.809,0,1,1-2.8-2.982A2.844,2.844,0,0,1,8650.371,4772.292Zm-1.1,0a1.723,1.723,0,1,0-1.7,1.958A1.844,1.844,0,0,0,8649.273,4772.292Z" transform="translate(-8598.256 -4743.716)" fill="#fff"/>
      <path id="Caminho_32" data-name="Caminho 32" d="M9879.173,4799.423V4795.5h1.089v3.907c0,.528.2.752.719.752h1.729v1.073h-1.735A1.652,1.652,0,0,1,9879.173,4799.423Z" transform="translate(-9826.025 -4769.765)" fill="#fff"/>
      <path id="Caminho_33" data-name="Caminho 33" d="M10704.219,4800.753a2.114,2.114,0,0,1-.578-1.495V4795.5h1.09v3.774a.988.988,0,1,0,1.976,0V4795.5h1.089v3.759a2.121,2.121,0,0,1-3.576,1.495Z" transform="translate(-10646.059 -4769.765)" fill="#fff"/>
      <path id="Caminho_34" data-name="Caminho 34" d="M11644.373,4796.516h-4.163V4795.5h4.163Zm-1.538,4.716h-1.089v-4.278h1.089Z" transform="translate(-11577.59 -4769.765)" fill="#fff"/>
      <path id="Caminho_35" data-name="Caminho 35" d="M12587.5,4801.232h1.089V4795.5h-1.089Z" transform="translate(-12519.788 -4769.765)" fill="#fff"/>
      <path id="Caminho_36" data-name="Caminho 36" d="M12993.84,4772.292a2.809,2.809,0,1,1-2.8-2.982A2.844,2.844,0,0,1,12993.84,4772.292Zm-1.1,0a1.722,1.722,0,1,0-1.7,1.958A1.843,1.843,0,0,0,12992.741,4772.292Z" transform="translate(-12918.36 -4743.716)" fill="#fff"/>
      <path id="Caminho_37" data-name="Caminho 37" d="M14226.278,4769.9a2.082,2.082,0,0,1,.578,1.487v3.8h-1.092v-3.825a.987.987,0,0,0-1.974,0v3.825h-1.09v-3.8a2.116,2.116,0,0,1,3.577-1.487Z" transform="translate(-14146.188 -4743.716)" fill="#fff"/>
      <path id="Caminho_38" data-name="Caminho 38" d="M15150.051,4795.208a1.853,1.853,0,0,0-.472,1.528,2.821,2.821,0,0,1-.857,2.337,2.7,2.7,0,0,1-1.81.528v-1.032a1.8,1.8,0,0,0,1.122-.314c.274-.232.455-.6.455-1.52a2.793,2.793,0,0,1,.852-2.322,2.6,2.6,0,0,1,1.742-.553v1.042A1.616,1.616,0,0,0,15150.051,4795.208Z" transform="translate(-15065.426 -4768.134)" fill="#fff"/>
      <path id="Caminho_39" data-name="Caminho 39" d="M10.2,8.256V28.885H7.336V8.256H0V5.53H17.533V8.256Z" transform="translate(0 -5.53)" fill="#fff"/>
      <path id="Caminho_40" data-name="Caminho 40" d="M3011,1050.107v2.658c-3.332-.3-5.451,1.313-5.451,4.644v10.365h-2.827v-10.3C3002.721,1052.227,3006.457,1049.568,3011,1050.107Z" transform="translate(-2986.567 -1044.433)" fill="#fff"/>
      <path id="Caminho_41" data-name="Caminho 41" d="M5110.009,1125.31h2.861v10.5a7.235,7.235,0,1,1-14.47,0v-10.5h2.827v10.5a4.392,4.392,0,1,0,8.783,0Z" transform="translate(-5070.972 -1119.301)" fill="#fff"/>
      <path id="Caminho_42" data-name="Caminho 42" d="M8188.625,1124.689a4.673,4.673,0,0,0-3.466.976c-.773.774-1.312,1.885-1.312,4.88,0,3.433-.606,5.418-2.154,6.9a7.165,7.165,0,0,1-5.452,1.784V1136.4a4.749,4.749,0,0,0,3.5-1.044c.742-.707,1.279-1.817,1.279-4.813,0-3.432.605-5.452,2.154-6.932a7.085,7.085,0,0,1,5.451-1.716Z" transform="translate(-8132.255 -1115.886)" fill="#fff"/>
      <path id="Caminho_43" data-name="Caminho 43" d="M10960.594,458.143c-4.039.471-6.833-1.918-6.833-6.327V437.11h2.828v3.7h3.937v2.726h-3.937v8.278c0,3.062,1.851,3.837,4,3.7Z" transform="translate(-10894.833 -434.788)" fill="#fff"/>
    </g>
    <path id="Exclusão_1" data-name="Exclusão 1" d="M27.288,17.8H0V0H27.288V17.8ZM4.9,3.559v10.77h17.5V3.559Z" transform="translate(80.468 -1.016)" fill="#fff"/>
    <path id="Exclusão_2" data-name="Exclusão 2" d="M27.288,17.8H0V0H27.288V17.8ZM4.791,3.615V14.228H22.5V3.615Z" transform="translate(70.315 4.902)" fill="#fff"/>
    <path id="Exclusão_3" data-name="Exclusão 3" d="M27.288,17.8H0V0H27.288V17.8ZM5.712,3.476V14.181H22.339V3.476Z" transform="translate(87.587 13.187)" fill="#fff"/>
    <rect id="Retângulo_29" data-name="Retângulo 29" width="5.555" height="3.559" transform="translate(87.611 19.129)" fill="#9a3030"/>
    <rect id="Retângulo_30" data-name="Retângulo 30" width="5.339" height="3.559" transform="translate(92.333 13.204)" fill="#9a3030"/>
    <rect id="Retângulo_31" data-name="Retângulo 31" width="5.339" height="4.153" transform="translate(80.5 4.909)" fill="#9a3030"/>
  </g>
</svg>
